<?xml version="1.0" standalone="no"?>
<!DOCTYPE svg PUBLIC "-//W3C//DTD SVG 20010904//EN"
 "http://www.w3.org/TR/2001/REC-SVG-20010904/DTD/svg10.dtd">
<svg version="1.0" xmlns="http://www.w3.org/2000/svg"
 width="256.000000pt" height="256.000000pt" viewBox="0 0 256.000000 256.000000"
 preserveAspectRatio="xMidYMid meet">

<g transform="translate(0.000000,256.000000) scale(0.100000,-0.100000)"
fill="#000000" stroke="none">
<path d="M820 2230 l-80 -119 0 -68 c1 -37 7 -157 14 -265 l13 -198 69 -76
c140 -156 145 -162 127 -158 -10 2 -72 11 -138 20 -66 9 -120 17 -121 17 0 1
-48 72 -107 157 l-105 156 -17 119 c-23 176 -30 195 -64 195 -52 0 -54 -13
-30 -185 l21 -157 124 -184 c69 -100 132 -185 142 -188 9 -2 92 -15 185 -27
92 -13 167 -26 167 -29 0 -4 -11 -17 -24 -29 -23 -22 -35 -24 -195 -29 l-170
-5 -123 -89 c-181 -132 -163 -101 -176 -299 -9 -119 -9 -176 -2 -190 12 -22
52 -25 69 -5 6 7 16 84 23 170 l12 158 115 84 116 84 122 0 121 0 -10 -28 c-8
-21 -43 -46 -147 -107 -212 -122 -188 -89 -196 -267 l-7 -153 84 -158 c85
-162 108 -186 143 -157 26 21 17 48 -61 196 l-75 144 8 116 8 116 108 64 107
63 0 -38 c0 -101 74 -234 168 -301 165 -119 390 -101 531 40 62 62 109 157
119 236 l7 60 106 -62 106 -63 7 -117 6 -116 -75 -143 c-77 -147 -86 -174 -60
-195 36 -30 58 -5 143 157 l83 158 -8 155 -8 155 -161 94 c-126 74 -163 100
-172 123 l-10 28 122 0 122 0 115 -85 116 -84 11 -156 c6 -89 16 -163 23 -171
17 -20 57 -17 69 6 7 13 7 69 -2 186 -10 145 -14 170 -32 190 -12 13 -76 63
-144 112 l-123 89 -170 5 c-160 5 -172 7 -195 29 -13 12 -24 25 -24 29 0 3 79
16 175 29 122 16 181 28 194 40 24 21 251 360 251 375 0 6 9 74 20 150 13 95
16 146 9 158 -10 19 -63 25 -74 9 -3 -6 -15 -76 -26 -157 l-20 -147 -106 -156
c-59 -86 -107 -157 -107 -158 -1 0 -53 -8 -116 -17 -63 -9 -126 -19 -139 -22
-26 -6 -31 -12 122 159 l69 76 14 198 c7 109 13 229 14 266 l0 68 -80 119
c-83 124 -101 138 -134 104 -9 -8 -16 -21 -16 -29 0 -7 32 -62 71 -121 l71
-108 -11 -200 c-7 -111 -14 -215 -17 -233 -3 -23 -34 -64 -106 -144 l-101
-111 -17 43 c-22 56 -84 128 -126 145 -19 8 -52 14 -74 14 -22 0 -55 -6 -74
-14 -42 -17 -104 -89 -126 -145 l-17 -43 -101 112 c-56 61 -104 121 -106 133
-3 12 -10 117 -17 232 l-11 211 71 108 c39 59 71 114 71 121 0 8 -7 21 -16 29
-33 34 -51 20 -134 -104z"/>
</g>
</svg>
